<?xml version="1.0" encoding="UTF-8" standalone="no"?>
<!DOCTYPE svg PUBLIC "-//W3C//DTD SVG 1.1//EN" "http://www.w3.org/Graphics/SVG/1.1/DTD/svg11.dtd">
<!-- Created with Vectornator (http://vectornator.io/) -->
<svg height="100%" stroke-miterlimit="10" style="fill-rule:nonzero;clip-rule:evenodd;stroke-linecap:round;stroke-linejoin:round;" version="1.1" viewBox="0 0 512 512" width="100%" xml:space="preserve" xmlns="http://www.w3.org/2000/svg" xmlns:vectornator="http://vectornator.io" xmlns:xlink="http://www.w3.org/1999/xlink">
<defs/>
<g id="Ohne-Titel" vectornator:layerName="Ohne Titel">
<g opacity="1" vectornator:layerName="path">
<path d="M308.901 457.614C308.901 443.35 297.338 431.786 283.074 431.786C268.81 431.786 257.247 443.35 257.247 457.614C257.247 471.878 268.81 483.442 283.074 483.442C297.338 483.442 308.901 471.878 308.901 457.614" fill="#ffffff" fill-rule="nonzero" opacity="1" stroke="none" vectornator:layerName="path"/>
<path d="M472.858 45.9715L375.898 69.5628L222.363 111.815L192.085 123.787L151.904 171.547L0 269.921C0 269.921 2.76406 296.823 39.4383 286.267C55.0386 279.426 68.387 274.989 79.1389 272.104L6.33441 358.652C6.33441 358.652 16.6009 378.397 57.7461 360.767C62.6749 358.652 188.562 235.767 188.562 235.767L207.727 338.25L227.493 389.056C231.643 399.724 241.915 406.751 253.362 406.751L266.292 406.751L246.558 239.209C244.243 217.509 261.253 198.603 283.073 198.603C304.893 198.603 321.902 217.509 319.588 239.209L299.994 405.413L306.861 405.287C323.181 404.984 337.619 394.638 343.151 379.282L360.294 331.685L394.834 256.119L442.331 169.682L467.241 158.093L472.858 45.9715Z" fill="#ffffff" fill-rule="nonzero" opacity="1" stroke="none" vectornator:layerName="path"/>
<path d="M455.345 158.124L457.06 41.8331L512 28.5578L506.713 161.856L455.104 176.371L455.345 158.124Z" fill="#ffffff" fill-rule="nonzero" opacity="1" stroke="none" vectornator:layerName="path"/>
</g>
</g>
</svg>
